HIERARCHY
ROOT Hips
{
    OFFSET 0.000000 0.000000 0.000000
    CHANNELS 6 Xposition Yposition Zposition Zrotation Xrotation Yrotation
    JOINT Spine
    {
        OFFSET -0.000000 14.517291 0.000000
        CHANNELS 3 Zrotation Xrotation Yrotation
        JOINT Spine1
        {
            OFFSET -0.000000 37.558300 0.000000
            CHANNELS 3 Zrotation Xrotation Yrotation
            JOINT Neck
            {
                OFFSET -0.000000 37.404057 3.400369
                CHANNELS 3 Zrotation Xrotation Yrotation
                JOINT Head
                {
                    OFFSET -0.000000 24.785618 -3.540803
                    CHANNELS 3 Zrotation Xrotation Yrotation
                    End Site
                    {
                        OFFSET -0.000000 35.408028 0.000000
                    }
                }
            }
            JOINT LeftShoulder
            {
                OFFSET 6.992933 33.973492 -0.192664
                CHANNELS 3 Zrotation Xrotation Yrotation
                JOINT LeftArm
                {
                    OFFSET 21.527611 0.000000 0.000000
                    CHANNELS 3 Zrotation Xrotation Yrotation
                    JOINT LeftForeArm
                    {
                        OFFSET 56.353916 0.000000 0.000000
                        CHANNELS 3 Zrotation Xrotation Yrotation
                        JOINT LeftHand
                        {
                            OFFSET 47.774071 0.000000 0.000000
                            CHANNELS 3 Zrotation Xrotation Yrotation
                            End Site
                            {
                                OFFSET 26.556021 0.000000 0.000000
                            }
                        }
                    }
                }
            }
            JOINT RightShoulder
            {
                OFFSET -7.065357 33.973492 -0.192664
                CHANNELS 3 Zrotation Xrotation Yrotation
                JOINT RightArm
                {
                    OFFSET -21.527611 0.000000 0.000000
                    CHANNELS 3 Zrotation Xrotation Yrotation
                    JOINT RightForeArm
                    {
                        OFFSET -56.353916 0.000000 0.000000
                        CHANNELS 3 Zrotation Xrotation Yrotation
                        JOINT RightHand
                        {
                            OFFSET -47.774071 0.000000 0.000000
                            CHANNELS 3 Zrotation Xrotation Yrotation
                            End Site
                            {
                                OFFSET -26.556021 0.000000 0.000000
                            }
                        }
                    }
                }
            }
        }
    }
    JOINT LeftUpLeg
    {
        OFFSET 17.704014 0.000000 0.000000
        CHANNELS 3 Zrotation Xrotation Yrotation
        JOINT LeftLeg
        {
            OFFSET -0.000000 -81.181816 0.000000
            CHANNELS 3 Zrotation Xrotation Yrotation
            JOINT LeftFoot
            {
                OFFSET -0.000000 -62.821102 0.000000
                CHANNELS 3 Zrotation Xrotation Yrotation
                JOINT LeftToeBase
                {
                    OFFSET -0.000000 -11.507608 26.556021
                    CHANNELS 3 Zrotation Xrotation Yrotation
                    End Site
                    {
                        OFFSET -0.000000 0.000000 7.081605
                    }
                }
            }
        }
    }
    JOINT RightUpLeg
    {
        OFFSET -17.704014 0.000000 0.000000
        CHANNELS 3 Zrotation Xrotation Yrotation
        JOINT RightLeg
        {
            OFFSET -0.000000 -81.181816 0.000000
            CHANNELS 3 Zrotation Xrotation Yrotation
            JOINT RightFoot
            {
                OFFSET -0.000000 -62.821102 0.000000
                CHANNELS 3 Zrotation Xrotation Yrotation
                JOINT RightToeBase
                {
                    OFFSET -0.000000 -11.507608 26.556021
                    CHANNELS 3 Zrotation Xrotation Yrotation
                    End Site
                    {
                        OFFSET -0.000000 0.000000 7.081605
                    }
                }
            }
        }
    }
}
MOTION
Frames:    13
Frame Time:    0.008333
-19.965052    163.400146    -77.519432    -8.151887    -24.390440    43.855476    3.792350    5.889287    -3.763520    4.117429    8.505466    -1.493732    18.710699    0.483766    -5.615255    5.045878    -1.819916    -7.775780    10.978727    9.071720    -21.567776    -25.966125    34.465797    -48.931908    -19.909517    -11.782662    -26.188469    -6.203480    -15.297692    -19.456537    12.924015    7.429594    -10.357601    32.385738    16.954901    17.713852    -12.371945    4.491482    34.866409    -24.248224    1.322926    32.030167    26.310553    0.955700    4.919913    -5.251979    38.392910    -17.020439    9.013933    -23.158051    35.301697    0.000000    0.000000    0.000000    -86.127747    -43.556751    -52.653778    9.203677    17.035772    -8.055590    19.523123    10.335929    -33.983025    0.000000    0.000000    0.000000    
-19.973663    163.398575    -77.506149    -8.141685    -24.394718    43.848145    3.804068    5.907747    -3.751426    4.099238    8.482274    -1.487095    18.733555    0.499554    -5.602310    5.029517    -1.811989    -7.765940    11.018265    9.008688    -21.466894    -26.160206    34.513599    -48.439945    -20.191263    -11.337422    -26.189590    -6.054388    -14.955140    -19.344376    12.935005    7.464185    -10.345592    32.382496    16.948730    17.678364    -12.379851    4.471444    34.875153    -24.257113    1.302811    32.034119    26.310783    0.966376    4.899874    -5.270151    38.404442    -17.008711    9.016449    -23.159277    35.322197    0.000000    0.000000    0.000000    -86.150444    -43.567642    -52.668995    9.229984    17.063534    -8.064092    19.509544    10.329185    -33.966522    0.000000    0.000000    0.000000    
-19.984375    163.401123    -77.497307    -8.135558    -24.401545    43.839882    3.804520    5.939667    -3.739959    4.123506    8.431454    -1.482910    18.689589    0.525542    -5.595928    5.074339    -1.791865    -7.742245    11.004945    8.919104    -21.373732    -26.354479    34.574158    -47.955509    -20.454432    -11.003939    -26.134941    -5.877501    -14.703507    -19.410700    12.913650    7.493064    -10.323551    32.394585    16.941708    17.621653    -12.376036    4.469880    34.878868    -24.249712    1.302548    32.034668    26.311184    0.971391    4.907815    -5.253564    38.417542    -17.013571    8.994468    -23.165209    35.329784    0.000000    0.000000    0.000000    -86.161774    -43.581944    -52.683537    9.242130    17.090851    -8.087154    19.483383    10.335079    -33.931244    0.000000    0.000000    0.000000    
-19.997505    163.398254    -77.487007    -8.139839    -24.392353    43.827465    3.801838    5.946377    -3.721966    4.137787    8.388922    -1.476370    18.651260    0.549365    -5.594941    5.128460    -1.776494    -7.723717    11.017187    8.834376    -21.267269    -26.577894    34.508202    -47.532608    -20.802813    -10.719147    -26.042656    -5.759203    -14.505884    -19.417017    12.895403    7.520557    -10.313603    32.407082    16.918175    17.571987    -12.344756    4.488467    34.889420    -24.248224    1.314339    32.028664    26.313900    0.955257    4.903587    -5.267005    38.441154    -16.993311    8.991030    -23.158031    35.334183    0.000000    0.000000    0.000000    -86.203209    -43.605259    -52.746853    9.245049    17.137129    -8.097291    19.461782    10.333422    -33.931118    0.000000    0.000000    0.000000    
-20.013134    163.397079    -77.473297    -8.147778    -24.394163    43.823421    3.802282    5.968924    -3.704662    4.168199    8.325878    -1.470316    18.615053    0.565590    -5.601390    5.167559    -1.739186    -7.717887    11.020386    8.750021    -21.168449    -26.806412    34.433071    -47.145626    -21.077496    -10.347466    -25.890856    -5.582037    -14.200272    -19.492466    12.868670    7.550135    -10.300658    32.437878    16.891239    17.502096    -12.324875    4.508359    34.889484    -24.237686    1.329283    32.036629    26.336916    0.936240    4.893671    -5.296968    38.470688    -17.007673    8.984149    -23.163820    35.378384    0.000000    0.000000    0.000000    -86.225273    -43.606724    -52.776749    9.266145    17.166552    -8.092070    19.422117    10.318014    -33.927948    0.000000    0.000000    0.000000    
-20.027552    163.393097    -77.460876    -8.155667    -24.385427    43.814449    3.806381    5.977241    -3.685018    4.180036    8.267511    -1.462360    18.561050    0.592506    -5.611629    5.241070    -1.716490    -7.705623    11.016450    8.674240    -21.059580    -27.001278    34.279079    -46.802799    -21.441486    -10.060277    -25.740728    -5.362524    -14.005106    -19.576324    12.843146    7.578151    -10.289513    32.466537    16.851385    17.437630    -12.264792    4.557901    34.896210    -24.247538    1.358338    32.033882    26.347679    0.918355    4.880268    -5.326643    38.486191    -16.975021    8.978579    -23.169193    35.397034    0.000000    0.000000    0.000000    -86.268532    -43.625938    -52.835682    9.266426    17.218885    -8.113014    19.417561    10.310084    -33.913422    0.000000    0.000000    0.000000    
-20.035372    163.395294    -77.440422    -8.156184    -24.404350    43.819199    3.810972    5.999453    -3.661486    4.208649    8.215795    -1.454365    18.528257    0.611566    -5.625396    5.285361    -1.682639    -7.706582    11.025397    8.606109    -20.990833    -27.164354    34.189041    -46.516270    -21.635309    -9.832530    -25.600363    -5.329979    -13.803691    -19.568264    12.827914    7.604774    -10.285660    32.485703    16.840631    17.364651    -12.238179    4.575067    34.882000    -24.241453    1.364957    32.043674    26.379177    0.931330    4.859143    -5.354747    38.487816    -16.981068    8.991703    -23.164362    35.412884    0.000000    0.000000    0.000000    -86.270790    -43.612873    -52.828819    9.308673    17.250326    -8.135680    19.386801    10.275745    -33.926380    0.000000    0.000000    0.000000    
-20.037195    163.400589    -77.411743    -8.138867    -24.440817    43.830391    3.822878    6.030629    -3.641928    4.229840    8.177418    -1.447334    18.447895    0.632924    -5.645327    5.395535    -1.643728    -7.696588    11.020099    8.538119    -20.921703    -27.290449    34.071381    -46.264816    -21.882542    -9.624174    -25.467350    -5.112120    -13.665117    -19.572226    12.811512    7.644648    -10.278626    32.516823    16.845013    17.297741    -12.253251    4.574615    34.861931    -24.198616    1.377916    32.052002    26.408649    0.974472    4.846634    -5.364690    38.478134    -16.975536    8.980613    -23.172932    35.405472    0.000000    0.000000    0.000000    -86.244598    -43.603092    -52.812820    9.326187    17.289616    -8.145952    19.394407    10.229466    -33.930202    0.000000    0.000000    0.000000    
-20.034950    163.407166    -77.381645    -8.120453    -24.474205    43.847198    3.831130    6.044801    -3.619614    4.234720    8.157295    -1.439194    18.440176    0.663129    -5.656220    5.437916    -1.634889    -7.695599    11.048100    8.490604    -20.868229    -27.390974    33.926788    -46.083378    -22.124174    -9.467799    -25.311604    -5.029809    -13.545205    -19.655947    12.821265    7.658888    -10.270473    32.528454    16.838804    17.227455    -12.223453    4.599997    34.823441    -24.196703    1.384295    32.076237    26.434044    1.022558    4.844357    -5.361026    38.452778    -16.971634    8.976066    -23.178055    35.381840    0.000000    0.000000    0.000000    -86.206322    -43.575882    -52.606617    9.400961    17.268744    -8.338010    19.359287    10.219205    -33.907436    0.000000    0.000000    0.000000    
-20.027035    163.410187    -77.344086    -8.093150    -24.518354    43.871815    3.845273    6.056138    -3.601155    4.249888    8.156182    -1.433675    18.392885    0.672035    -5.671007    5.502172    -1.596633    -7.694442    11.036187    8.436894    -20.826572    -27.424984    33.825455    -45.923012    -22.337599    -9.390734    -25.236221    -4.898833    -13.524207    -19.664747    12.807147    7.681442    -10.277153    32.556778    16.819157    17.177345    -12.196792    4.631661    34.794662    -24.179863    1.406796    32.086826    26.459608    1.080810    4.859804    -5.325952    38.438293    -16.981251    8.942928    -23.193626    35.311604    0.000000    0.000000    0.000000    -86.188461    -43.556168    -52.775509    9.370083    17.363985    -8.165384    19.354685    10.187864    -33.888641    0.000000    0.000000    0.000000    
-20.015852    163.420288    -77.311913    -8.063636    -24.565086    43.905807    3.859136    6.073980    -3.589449    4.259658    8.145423    -1.429609    18.383789    0.690446    -5.680513    5.530608    -1.565508    -7.697039    11.033879    8.405374    -20.795807    -27.427401    33.713097    -45.832546    -22.535700    -9.358999    -25.133717    -4.852030    -13.525438    -19.650238    12.815553    7.705555    -10.285605    32.564167    16.843416    17.140457    -12.200512    4.627281    34.731602    -24.143042    1.404617    32.098278    26.480162    1.132656    4.851516    -5.298812    38.427456    -17.002001    8.922506    -23.200808    35.293201    0.000000    0.000000    0.000000    -86.122505    -43.503540    -52.523102    9.455842    17.320551    -8.349653    19.352343    10.151840    -33.915981    0.000000    0.000000    0.000000    
-20.012161    163.427765    -77.279259    -8.045290    -24.602556    43.933655    3.875583    6.068908    -3.574079    4.264256    8.157361    -1.424978    18.346338    0.698910    -5.693658    5.598095    -1.546953    -7.694293    11.035891    8.373861    -20.766823    -27.377522    33.585934    -45.811749    -22.772781    -9.378987    -25.028954    -4.774048    -13.587286    -19.721304    12.814495    7.706805    -10.295444    32.589081    16.822588    17.100895    -12.164699    4.673515    34.691505    -24.125599    1.436882    32.112679    26.506340    1.163397    4.847157    -5.271365    38.434021    -17.049528    8.901810    -23.206085    35.286110    0.000000    0.000000    0.000000    -86.088562    -43.473225    -52.488071    9.475458    17.349922    -8.349586    19.365866    10.103812    -33.950569    0.000000    0.000000    0.000000    
-20.004976    163.435455    -77.251564    -8.021584    -24.633314    43.981853    3.885780    6.065757    -3.577355    4.271555    8.160449    -1.426544    18.333357    0.693114    -5.694552    5.627126    -1.504144    -7.691859    11.026387    8.357876    -20.746311    -27.301632    33.493675    -45.817371    -22.908381    -9.374846    -24.961761    -4.715128    -13.607680    -19.772751    12.818827    7.715537    -10.306643    32.601688    16.709764    17.076591    -12.047878    4.790905    34.661545    -24.167309    1.493648    32.147156    26.519869    1.181758    4.825490    -5.251661    38.439476    -17.077160    8.900303    -23.200714    35.280491    0.000000    0.000000    0.000000    -86.079079    -43.429070    -52.646183    9.440001    17.432121    -8.140102    19.357962    10.071941    -33.954063    0.000000    0.000000    0.000000    
